<mxfile host="Electron" agent="Mozilla/5.0 (Windows NT 10.0; Win64; x64) AppleWebKit/537.36 (KHTML, like Gecko) draw.io/28.0.4 Chrome/138.0.7204.97 Electron/37.2.1 Safari/537.36" version="28.0.4">
  <diagram name="Page-1" id="1OwQJqaQJcTUYMe0Y9VO">
    <mxGraphModel dx="758" dy="460" grid="1" gridSize="10" guides="1" tooltips="1" connect="1" arrows="1" fold="1" page="1" pageScale="1" pageWidth="850" pageHeight="1100" math="0" shadow="0">
      <root>
        <mxCell id="0" />
        <mxCell id="1" parent="0" />
        <mxCell id="DccrsjkB_YU0Ia4fLOwT-1" value="User" style="shape=umlActor;verticalLabelPosition=bottom;verticalAlign=top;html=1;outlineConnect=0;" vertex="1" parent="1">
          <mxGeometry x="80" y="320" width="30" height="60" as="geometry" />
        </mxCell>
        <mxCell id="DccrsjkB_YU0Ia4fLOwT-5" value="" style="rounded=0;whiteSpace=wrap;html=1;" vertex="1" parent="1">
          <mxGeometry x="200" y="130" width="330" height="390" as="geometry" />
        </mxCell>
        <mxCell id="DccrsjkB_YU0Ia4fLOwT-6" value="&lt;b&gt;&lt;font style=&quot;font-size: 15px;&quot;&gt;PhoneBook&lt;/font&gt;&lt;/b&gt;" style="text;html=1;align=center;verticalAlign=middle;resizable=0;points=[];autosize=1;strokeColor=none;fillColor=none;" vertex="1" parent="1">
          <mxGeometry x="310" y="130" width="110" height="30" as="geometry" />
        </mxCell>
        <mxCell id="DccrsjkB_YU0Ia4fLOwT-11" value="Add&lt;div&gt;contact&lt;/div&gt;" style="ellipse;whiteSpace=wrap;html=1;" vertex="1" parent="1">
          <mxGeometry x="220" y="170" width="120" height="50" as="geometry" />
        </mxCell>
        <mxCell id="DccrsjkB_YU0Ia4fLOwT-12" value="Remove&lt;div&gt;contact&lt;/div&gt;" style="ellipse;whiteSpace=wrap;html=1;" vertex="1" parent="1">
          <mxGeometry x="220" y="240" width="120" height="50" as="geometry" />
        </mxCell>
        <mxCell id="DccrsjkB_YU0Ia4fLOwT-13" value="Find contact" style="ellipse;whiteSpace=wrap;html=1;" vertex="1" parent="1">
          <mxGeometry x="220" y="310" width="120" height="50" as="geometry" />
        </mxCell>
        <mxCell id="DccrsjkB_YU0Ia4fLOwT-15" value="View contact" style="ellipse;whiteSpace=wrap;html=1;" vertex="1" parent="1">
          <mxGeometry x="220" y="380" width="120" height="50" as="geometry" />
        </mxCell>
        <mxCell id="DccrsjkB_YU0Ia4fLOwT-17" value="Edit contact" style="ellipse;whiteSpace=wrap;html=1;" vertex="1" parent="1">
          <mxGeometry x="220" y="450" width="120" height="50" as="geometry" />
        </mxCell>
        <mxCell id="DccrsjkB_YU0Ia4fLOwT-20" value="" style="endArrow=none;html=1;rounded=0;entryX=0;entryY=1;entryDx=0;entryDy=0;exitX=0.5;exitY=0.5;exitDx=0;exitDy=0;exitPerimeter=0;" edge="1" parent="1" source="DccrsjkB_YU0Ia4fLOwT-1" target="DccrsjkB_YU0Ia4fLOwT-11">
          <mxGeometry width="50" height="50" relative="1" as="geometry">
            <mxPoint x="100" y="350" as="sourcePoint" />
            <mxPoint x="150" y="300" as="targetPoint" />
          </mxGeometry>
        </mxCell>
        <mxCell id="DccrsjkB_YU0Ia4fLOwT-22" value="" style="endArrow=none;html=1;rounded=0;entryX=0.06;entryY=0.339;entryDx=0;entryDy=0;entryPerimeter=0;exitX=0.5;exitY=0.5;exitDx=0;exitDy=0;exitPerimeter=0;" edge="1" parent="1" source="DccrsjkB_YU0Ia4fLOwT-1" target="DccrsjkB_YU0Ia4fLOwT-17">
          <mxGeometry width="50" height="50" relative="1" as="geometry">
            <mxPoint x="90" y="470" as="sourcePoint" />
            <mxPoint x="140" y="420" as="targetPoint" />
          </mxGeometry>
        </mxCell>
        <mxCell id="DccrsjkB_YU0Ia4fLOwT-23" value="" style="endArrow=none;html=1;rounded=0;exitX=0.5;exitY=0.5;exitDx=0;exitDy=0;exitPerimeter=0;" edge="1" parent="1" source="DccrsjkB_YU0Ia4fLOwT-1" target="DccrsjkB_YU0Ia4fLOwT-15">
          <mxGeometry width="50" height="50" relative="1" as="geometry">
            <mxPoint x="160" y="410" as="sourcePoint" />
            <mxPoint x="210" y="360" as="targetPoint" />
          </mxGeometry>
        </mxCell>
        <mxCell id="DccrsjkB_YU0Ia4fLOwT-24" value="" style="endArrow=none;html=1;rounded=0;exitX=0.5;exitY=0.5;exitDx=0;exitDy=0;exitPerimeter=0;entryX=0;entryY=0.5;entryDx=0;entryDy=0;" edge="1" parent="1" source="DccrsjkB_YU0Ia4fLOwT-1" target="DccrsjkB_YU0Ia4fLOwT-13">
          <mxGeometry width="50" height="50" relative="1" as="geometry">
            <mxPoint x="130" y="385" as="sourcePoint" />
            <mxPoint x="180" y="335" as="targetPoint" />
          </mxGeometry>
        </mxCell>
        <mxCell id="DccrsjkB_YU0Ia4fLOwT-25" value="" style="endArrow=none;html=1;rounded=0;exitX=0.5;exitY=0.5;exitDx=0;exitDy=0;exitPerimeter=0;" edge="1" parent="1" source="DccrsjkB_YU0Ia4fLOwT-1" target="DccrsjkB_YU0Ia4fLOwT-12">
          <mxGeometry width="50" height="50" relative="1" as="geometry">
            <mxPoint x="120" y="360" as="sourcePoint" />
            <mxPoint x="150" y="370" as="targetPoint" />
          </mxGeometry>
        </mxCell>
      </root>
    </mxGraphModel>
  </diagram>
</mxfile>
